<?xml version="1.0" encoding="UTF-8" standalone="no"?>
<!-- Created with Inkscape (http://www.inkscape.org/) -->

<svg
   xmlns:dc="http://purl.org/dc/elements/1.1/"
   xmlns:cc="http://creativecommons.org/ns#"
   xmlns:rdf="http://www.w3.org/1999/02/22-rdf-syntax-ns#"
   xmlns:svg="http://www.w3.org/2000/svg"
   xmlns="http://www.w3.org/2000/svg"
   xmlns:xlink="http://www.w3.org/1999/xlink"
   xmlns:sodipodi="http://sodipodi.sourceforge.net/DTD/sodipodi-0.dtd"
   xmlns:inkscape="http://www.inkscape.org/namespaces/inkscape"
   width="303.72116"
   height="212.41498"
   id="svg2989"
   version="1.1"
   inkscape:version="0.48.3.1 r9886"
   sodipodi:docname="JustinsHead.svg">
  <defs
     id="defs2991">
    <linearGradient
       id="linearGradient4337">
      <stop
         style="stop-color:#2f6790;stop-opacity:1;"
         offset="0"
         id="stop4339" />
      <stop
         style="stop-color:#287cd2;stop-opacity:1;"
         offset="1"
         id="stop4341" />
    </linearGradient>
    <linearGradient
       inkscape:collect="always"
       id="linearGradient4323">
      <stop
         style="stop-color:#e6e6e6;stop-opacity:1;"
         offset="0"
         id="stop4325" />
      <stop
         style="stop-color:#e6e6e6;stop-opacity:0;"
         offset="1"
         id="stop4327" />
    </linearGradient>
    <linearGradient
       inkscape:collect="always"
       xlink:href="#linearGradient4323"
       id="linearGradient4606"
       gradientUnits="userSpaceOnUse"
       x1="237.66968"
       y1="337.91541"
       x2="275.61243"
       y2="337.91541" />
    <radialGradient
       inkscape:collect="always"
       xlink:href="#linearGradient4337"
       id="radialGradient4608"
       gradientUnits="userSpaceOnUse"
       gradientTransform="matrix(4.0316946,-0.64721577,0.38093249,2.3729389,-919.43752,-289.78103)"
       cx="261.13971"
       cy="335.33942"
       fx="261.13971"
       fy="335.33942"
       r="14.678258" />
    <radialGradient
       inkscape:collect="always"
       xlink:href="#linearGradient4337"
       id="radialGradient4610"
       gradientUnits="userSpaceOnUse"
       gradientTransform="matrix(2.5667336,0.09117351,-0.06675473,1.8792917,-549.10148,-333.45968)"
       cx="365.23236"
       cy="346.34741"
       fx="365.23236"
       fy="346.34741"
       r="23.885412" />
    <linearGradient
       inkscape:collect="always"
       xlink:href="#linearGradient4323"
       id="linearGradient7369"
       gradientUnits="userSpaceOnUse"
       x1="237.66968"
       y1="337.91541"
       x2="275.61243"
       y2="337.91541" />
    <radialGradient
       inkscape:collect="always"
       xlink:href="#linearGradient4337"
       id="radialGradient7371"
       gradientUnits="userSpaceOnUse"
       gradientTransform="matrix(4.0316946,-0.64721577,0.38093249,2.3729389,-919.43752,-289.78103)"
       cx="261.13971"
       cy="335.33942"
       fx="261.13971"
       fy="335.33942"
       r="14.678258" />
    <radialGradient
       inkscape:collect="always"
       xlink:href="#linearGradient4337"
       id="radialGradient7373"
       gradientUnits="userSpaceOnUse"
       gradientTransform="matrix(2.5667336,0.09117351,-0.06675473,1.8792917,-549.10148,-333.45968)"
       cx="365.23236"
       cy="346.34741"
       fx="365.23236"
       fy="346.34741"
       r="23.885412" />
  </defs>
  <sodipodi:namedview
     id="base"
     pagecolor="#ffffff"
     bordercolor="#666666"
     borderopacity="1.0"
     inkscape:pageopacity="0.0"
     inkscape:pageshadow="2"
     inkscape:zoom="1.4142136"
     inkscape:cx="174.88285"
     inkscape:cy="94.005508"
     inkscape:document-units="px"
     inkscape:current-layer="layer1"
     showgrid="false"
     inkscape:window-width="1920"
     inkscape:window-height="1031"
     inkscape:window-x="0"
     inkscape:window-y="29"
     inkscape:window-maximized="1"
     fit-margin-top="0"
     fit-margin-left="0"
     fit-margin-right="0"
     fit-margin-bottom="0" />
  <metadata
     id="metadata2994">
    <rdf:RDF>
      <cc:Work
         rdf:about="">
        <dc:format>image/svg+xml</dc:format>
        <dc:type
           rdf:resource="http://purl.org/dc/dcmitype/StillImage" />
        <dc:title></dc:title>
      </cc:Work>
    </rdf:RDF>
  </metadata>
  <g
     inkscape:label="Layer 1"
     inkscape:groupmode="layer"
     id="layer1"
     transform="translate(-158.63828,-199.6743)">
    <g
       id="g7335"
       transform="matrix(0.7214218,0,0,0.7214218,86.498214,85.211998)">
      <path
         sodipodi:nodetypes="ccscssscsssccccsccccccccccccccccssscccccscscscscc"
         inkscape:connector-curvature="0"
         id="path3461"
         d="m 234.13603,284.89762 c -2.3405,22.38781 -25.78304,45.08734 -31.16388,61.6883 -0.66745,37.34281 68.68422,85.82818 95.71261,92.91994 12.21546,3.20512 65.87113,-16.37344 94.93294,-34.02542 18.80165,-17.62783 10.89488,-10.47618 26.88184,-24.2841 10.5786,-9.13672 16.52108,-31.63827 25.93605,-27.54837 3.7758,1.64022 21.14704,1.10446 30.05624,-6.7143 6.75573,-5.92888 12.92631,-22.58622 13.6099,-24.81938 2.91482,-9.02928 -7.47492,-26.33852 -14.96257,-27.26754 -7.18091,-0.89095 -22.25338,2.82978 -27.13702,5.86177 -6.25028,3.88047 -15.69724,25.14003 -18.01144,24.03161 -3.1619,-1.51443 10.69484,-34.71495 5.28099,-47.01015 -25.54006,-15.76837 -61.10128,6.66257 -80.48792,26.08626 -11.24023,-10.5227 36.56424,-42.70286 -2.03904,-33.63696 -53.19174,4.48533 -107.49122,11.7533 -157.14073,31.54823 -9.58632,9.83036 -65.74476,98.55459 -71.1645,93.7549 -2.97484,-2.6345 -17.17956,-137.28453 -10.25732,-147.4779 7.05793,-34.40603 110.52989,5.15765 126.6364,-1.24782 -45.99775,-9.40665 -94.17335,-58.96659 -140.821513,-57.56898 27.598463,-14.07783 58.935713,-23.70933 89.244713,-30.52404 61.93094,-0.34838 124.50937,57.81566 186.31369,61.40846 12.3183,-14.61903 -4.75415,-61.9929 8.37941,-57.53694 17.50146,45.8287 68.10848,69.12205 114.83722,66.53484 44.68603,-1.68212 10.55212,31.1191 -3.72822,49.08583 -5.47589,14.78407 -18.91907,28.41758 -4.59017,3.37792 7.0333,-16.32636 53.59252,-52.62028 11.35073,-48.51659 -42.65369,-2.20376 -91.02459,-14.50981 -112.69962,-55.19547 -24.05754,-50.86771 15.78974,59.27721 -26.24083,44.18108 -61.25414,-4.02433 -122.17447,-61.4373 -183.63834,-58.32726 -22.02572,7.81055 -61.76954,23.91092 -70.17899,23.56947 48.07977,-0.35843 105.41762,36.33193 152.45123,59.56297 -31.12908,21.91109 -111.00928,-15.76517 -126.65865,-7.25823 -15.61393,8.65736 -12.60155,14.65367 -16.78832,32.62643 -6.35321,27.27275 11.68744,106.42928 14.2137,106.82818 4.45249,0.70306 29.47042,-46.9789 37.0564,-58.29433 10.06685,-15.01594 43.92001,-37.50773 50.59963,-36.53673 48.23029,-14.79675 103.81963,-19.30652 153.88037,-21.45283 9.11949,10.61621 -33.2557,48.01466 -2.6009,20.50018 19.51411,-12.05642 76.21374,-42.75381 72.00343,-0.73652 -0.65115,8.57015 6.63038,7.74376 13.92864,6.41191 9.16312,0.25285 10.416,-4.08373 16.76403,-3.22474 15.03972,2.03511 24.85388,22.8704 21.6979,41.42569 -2.15488,10.12016 -11.63485,21.79989 -15.58623,25.4971 -17.27443,16.16332 -34.35151,2.14392 -36.86199,15.22425 -11.59671,6.80758 -9.97628,25.67356 -44.5768,44.72828 -32.92073,18.12964 -93.08045,41.21508 -102.10804,40.5404 -18.37399,-9.92923 -49.3455,-24.0977 -64.86238,-41.78296 -13.71401,-15.63046 -36.22294,-44.20467 -36.5942,-63.53384 8.25095,-24.02582 31.43366,-47.97003 39.13155,-62.8726 z"
         style="fill:#000000;fill-opacity:1;stroke:none" />
      <path
         inkscape:connector-curvature="0"
         id="path3466"
         d="m 466.3443,311.51976 c -3.80495,-1.11673 -8.45916,-0.95177 -11.44919,1.95473 -2.29884,2.62985 -3.84902,5.86734 -4.85738,9.19725 -1.54131,5.27649 -1.67989,10.89437 -0.9131,16.31254 0.78786,3.31817 4.50279,5.05837 7.68892,4.83179 3.17209,-0.26123 5.77589,-2.61225 7.47387,-5.15414 1.83815,-2.84708 2.69924,-6.42562 1.92269,-9.7642 -0.45325,-1.65076 -2.47511,-2.18193 -3.76529,-1.14467 -1.09806,0.37115 -2.19408,2.85491 -2.79962,0.8404 -0.65051,-1.95414 1.29364,-3.52825 2.9514,-4.07047 1.76499,-0.69141 4.18171,-0.26312 4.99616,1.62972 2.28252,3.62666 1.49173,8.2752 -0.19494,11.97143 -1.88966,4.55597 -6.41176,8.23736 -11.46942,8.23862 -1.91912,-0.004 -3.7179,-0.78256 -5.43603,-1.5489 -3.20027,-1.75418 -4.33693,-5.65804 -4.31541,-9.08857 0.0922,-2.63383 -0.15351,-5.28351 0.21871,-7.90911 0.67453,-5.83191 2.81401,-11.64114 6.75642,-16.06141 3.37606,-3.4136 8.93072,-4.48243 13.30208,-2.46028 0.52729,0.65768 0.19344,1.54991 -0.10987,2.22527 z"
         style="fill:#000000;fill-opacity:1;stroke:none" />
      <path
         sodipodi:nodetypes="csscccccc"
         inkscape:connector-curvature="0"
         id="path3482"
         d="m 251.23243,300.79578 c -0.0855,0.19782 11.13613,-1.92925 11.13759,-1.50215 10e-4,0.32722 -11.21225,3.22279 -11.27886,3.37569 -8.769,20.12877 -21.39721,45.2296 -7.01999,65.6532 16.7893,20.11515 49.79522,-2.6165 38.46303,-25.83932 2.98208,-16.0953 -14.14123,-40.13721 -20.4682,-43.41448 24.99893,10.14401 23.38587,43.38534 23.04673,65.88868 -11.9682,26.99789 -57.75568,9.92477 -49.78436,-18.92549 0.92111,-15.78362 4.91629,-33.36955 15.90406,-45.23613 z"
         style="fill:#000000;fill-opacity:1;stroke:none" />
      <path
         sodipodi:nodetypes="csscccc"
         inkscape:connector-curvature="0"
         id="path3529"
         d="m 257.27236,303.23518 c -0.0209,0.35166 5.13431,-4.37805 5.11174,-4.02453 -0.0254,0.39722 -5.22869,5.8779 -5.25571,6.27728 -0.93851,13.87129 -2.71306,28.98209 5.46357,41.09682 -1.85129,6.23791 19.61154,23.86803 14.03734,24.15499 -9.40454,-8.84801 -19.14485,-29.32608 -21.78604,-41.63487 -0.65701,-8.36858 -1.14243,-18.27382 2.4291,-25.86969 z"
         style="fill:#008080;fill-opacity:1;stroke:none" />
      <path
         sodipodi:nodetypes="cccccc"
         inkscape:connector-curvature="0"
         id="path3531"
         d="m 273.94541,313.4236 c -3.59567,1.99451 -7.32253,14.13212 -1.89038,20.75675 1.34871,6.49333 12.93085,20.07128 12.59407,25.36751 -3.9412,-4.96564 -13.58559,-20.25635 -16.27731,-27.88894 -3.02979,-6.6701 -0.99729,-17.1451 3.81661,-21.65467 0.49952,-0.52457 1.28632,3.22129 1.75701,3.41935 z"
         style="fill:#000000;fill-opacity:1;stroke:none" />
      <path
         inkscape:connector-curvature="0"
         id="path3553"
         d="m 256.50165,375.65283 c -3.96143,-0.70729 -7.58502,-2.61764 -10.63306,-5.60574 -1.80951,-1.77393 -2.9785,-3.48733 -4.56874,-6.69643 -5.4697,-11.03786 -4.78057,-24.26937 2.21814,-42.58929 1.08568,-2.84188 7.28158,-17.46454 7.62131,-17.98668 0.0437,-0.0671 9.98249,-2.89916 10.02466,-2.85653 0.0615,0.0622 -3.47829,2.98833 -3.73355,3.08629 -0.27063,0.10385 -1.21259,2.47778 -1.73164,4.36406 -0.62601,2.27501 -1.06395,5.29775 -1.28714,8.8841 -0.18148,2.91612 -0.16905,4.1759 0.0819,8.30357 0.27286,4.48737 0.34438,5.0465 0.91945,7.18733 2.46953,9.19341 8.0967,21.44634 13.73654,29.91072 1.7337,2.60198 2.97005,4.2361 4.9025,6.47976 0.91246,1.05941 1.61323,2.00027 1.55728,2.0908 -0.20839,0.33719 -3.43187,2.38288 -4.97981,3.1603 -2.02806,1.01855 -4.84824,1.9462 -6.95605,2.28806 -2.02133,0.32784 -5.27345,0.31862 -7.17182,-0.0203 l 0,0 z"
         style="fill:url(#linearGradient7369);fill-opacity:1;stroke:none" />
      <path
         inkscape:connector-curvature="0"
         id="path4347"
         d="m 284.07212,356.50058 c -1.01956,-2.51814 -2.60375,-5.36224 -6.05256,-10.86617 -3.07818,-4.91245 -4.89728,-8.30667 -5.57532,-10.4029 -0.21406,-0.66181 -0.57083,-1.44251 -0.80784,-1.76776 -0.81067,-1.11253 -1.50735,-2.74617 -1.91772,-4.49685 -0.18845,-0.80393 -0.23715,-1.51283 -0.23859,-3.4724 -0.002,-2.76859 0.1401,-3.74879 0.89648,-6.18271 0.7379,-2.37445 1.70179,-4.11181 2.92507,-5.27224 0.58107,-0.55123 0.66896,-0.68986 0.53766,-0.84807 -0.0863,-0.10402 -0.13372,-0.25886 -0.10531,-0.34409 0.0607,-0.18221 1.50634,2.22777 2.75976,4.60083 4.80311,9.09354 6.97772,17.56581 6.13274,23.89304 l -0.15177,1.13643 0.43034,1.01015 c 1.45861,3.42385 2.09956,7.06858 1.80081,10.24025 -0.0844,0.89597 -0.22764,1.96997 -0.31833,2.38666 -0.16434,0.75509 -0.16539,0.75638 -0.31542,0.38583 l 0,0 z"
         style="fill:#000000;fill-opacity:1;stroke:none" />
      <path
         sodipodi:nodetypes="csscssscssssssssssssssscsssssssssssssssscsssssssssssssssscsssssscccsssssssccscssssssssssssccssssssscsscssss"
         inkscape:connector-curvature="0"
         id="path4357"
         d="m 295.39079,438.48971 c -5.58993,-1.83402 -19.98617,-9.15434 -27.7632,-14.11725 -37.49423,-23.92695 -62.61047,-53.0361 -64.48742,-74.73947 l -0.30634,-3.54222 3.00005,-5.80169 c 1.65002,-3.19093 5.95586,-10.34738 9.56852,-15.90322 10.5972,-16.29722 14.19582,-22.90692 16.76547,-30.7937 l 0.85715,-5.06006 8.5239,-2.15269 c 27.49413,-6.94357 64.97647,-12.20895 101.06651,-15.26213 3.61129,-0.30552 9.59384,-1.02588 13.29456,-1.60082 7.94381,-1.23413 10.95829,-1.01806 11.80777,0.84633 0.86273,1.89349 -0.51663,4.75484 -6.22586,12.91493 -7.13334,10.19556 -9.22527,14.75589 -8.19151,17.85716 0.39057,1.17173 0.0695,1.68219 -3.11621,4.95504 -3.96813,4.0766 -1.91152,8.52895 -3.70542,14.83516 -1.06708,3.75115 -5.37468,4.34294 -5.33839,20.1283 0.0446,19.42686 0.38987,22.36904 3.33221,28.40104 6.73406,13.80528 25.24625,18.74787 41.14743,10.986 2.86965,-1.40077 5.86872,-3.72072 8.66455,-6.54284 5.31721,-5.36721 9.89929,-12.55075 11.45781,-18.68191 1.19557,-4.70332 1.00028,-12.34845 -0.46273,-18.11582 -2.27021,-8.94944 -6.44617,-16.43123 -14.28496,-25.59343 l -4.53727,-5.3033 -6.67944,-2.19375 c -3.67369,-1.20657 -6.80039,-2.0728 -6.94822,-1.92497 -0.14784,0.14784 2.20042,1.50715 5.21834,3.02069 4.97581,2.49546 5.65057,3.00413 7.24108,5.45871 0.96467,1.48874 4.48614,5.55446 7.82548,9.03492 8.71209,9.08025 11.0566,14.35281 10.9999,24.73765 -0.0477,8.73571 -2.77351,16.71466 -8.12223,23.77514 -2.85537,3.76916 -5.84372,6.40619 -10.95049,9.66307 -6.56525,4.18703 -11.83122,5.38706 -18.498,4.2154 -5.82774,-1.02421 -10.07016,-3.34105 -14.84419,-8.10664 -6.55746,-6.54585 -8.39388,-11.01243 -9.32298,-22.67551 -1.70466,-21.39856 1.415,-35.55393 9.67183,-43.88571 4.15323,-4.19093 7.39879,-5.56571 13.76886,-5.83228 2.37024,-0.0992 4.98776,-0.21894 5.47404,-0.33851 0.51621,-0.12693 -1.19476,-0.26158 -1.93851,-0.65367 -0.816,-0.43018 -3.25887,-0.8866 -5.4286,-1.01428 l -3.94497,-0.23213 1.41958,-1.50051 c 2.16686,-2.29039 12.49339,-9.9426 17.48008,-12.95316 9.7956,-5.9138 18.77211,-9.62712 27.6286,-11.42917 6.18943,-1.25937 16.04892,-0.84052 20.97036,0.89088 8.32844,2.93 8.8346,3.58634 8.82033,11.43734 -0.0121,6.68131 -1.02395,12.4953 -5.01679,28.82757 -1.53969,6.29794 -1.94727,10.1142 -1.08021,10.1142 0.80245,0 2.68427,-2.59404 7.81204,-10.76873 5.94769,-9.48182 8.71483,-12.72002 12.1787,-14.2519 5.71154,-2.52592 16.19647,-4.77701 22.25541,-4.77818 3.06681,-6.1e-4 3.87559,0.20138 5.80838,1.4505 3.06135,1.9785 5.51049,4.70052 8.00877,8.90108 4.11284,6.9153 5.15216,13.46389 3.05001,19.21764 -2.07718,5.68537 -7.49362,16.14336 -9.92858,19.16995 -4.55299,5.65925 -11.55504,9.1114 -21.04132,10.37379 -4.19758,0.5586 -6.39123,0.50728 -13.59444,-0.31801 l -2.92106,-0.33468 -2.92424,2.96813 c -1.69535,1.7208 -5.09189,6.40272 -8.08235,11.14103 -6.11266,9.68534 -7.72205,11.54902 -16.7137,19.35458 -3.76403,3.26752 -9.91203,8.81537 -13.66222,12.32856 -7.33212,6.86874 -9.95643,8.57056 -24.17377,15.6762 -21.59447,10.79264 -51.18368,21.51217 -66.93239,24.24816 -6.12711,1.06445 -9.48638,0.93759 -13.94971,-0.52681 z m 17.67767,-32.31334 c 2.91682,-0.71712 7.89809,-1.84803 11.0695,-2.51312 5.70897,-1.19724 6.9948,-1.72413 6.43159,-2.63543 -0.29893,-0.48368 -8.93994,1.21982 -18.35023,3.61759 -1.3466,0.34312 -1.21012,1.99033 -2.39122,2.19176 -4.49542,0.7667 -8.15898,0.50819 -13.78389,-0.76776 -3.03589,-0.68866 -6.9906,-2.53126 -7.10768,-2.41418 -1.48593,1.48593 10.80687,4.53962 16.30325,4.04994 1.38896,-0.12374 4.91187,-0.81173 7.82868,-1.52886 l 0,2e-5 z m -39.02707,-29.98961 c 4.10511,-1.89547 8.31512,-5.859 10.24965,-9.64955 1.13371,-2.22142 1.14448,-2.41899 0.83897,-15.38231 -0.31784,-13.48655 -1.03447,-20.17769 -2.88409,-26.92847 -3.02145,-11.02777 -8.7401,-19.06746 -16.50751,-23.20745 -2.7363,-1.45843 -3.37754,-1.60284 -6.10424,-1.37469 -5.92676,0.49591 -8.36317,1.16655 -9.6062,2.64421 -7.34012,8.72555 -12.53874,22.3774 -13.99234,36.74457 -0.16863,1.66676 -0.64284,5.446 -1.0538,8.39834 -0.90147,6.47614 -0.46291,10.11491 1.80259,14.95615 2.15983,4.61546 7.60766,9.96603 12.64443,12.41871 5.77775,2.81349 8.47346,3.38546 15.15229,3.21496 5.35706,-0.13676 6.09214,-0.2793 9.46025,-1.83447 z m 186.20638,-30.59918 c 7.5612,-3.15927 11.75269,-16.31368 6.51174,-20.4362 -1.54374,-1.21431 -3.19979,-1.29408 -5.21639,-0.25125 -1.5205,0.78628 -2.34899,2.65261 -1.80584,4.06803 0.26676,0.69517 0.47508,0.6632 1.63781,-0.25142 1.58632,-1.24779 3.98973,-1.38302 4.42491,-0.24896 0.75444,1.96605 0.27946,6.12822 -0.99008,8.67586 -2.4084,4.83302 -6.19748,7.05253 -10.42046,6.10392 -4.13843,-0.92962 -5.44772,-3.34434 -5.45266,-10.05637 -0.005,-6.57311 1.53599,-12.66613 4.35026,-17.20244 2.30383,-3.71354 5.91454,-5.33547 10.58004,-4.75256 2.08852,0.26095 2.67437,0.17148 2.91076,-0.44453 0.44891,-1.16986 -0.8722,-2.15539 -3.3968,-2.53398 -6.87887,-1.03155 -12.63936,3.91629 -15.79081,13.5632 -1.14542,3.50621 -1.34005,5.00391 -1.38356,10.6462 -0.046,5.96308 0.0604,6.79151 1.15838,9.02197 0.99123,2.01358 1.67356,2.67229 3.78807,3.65687 3.00042,1.39709 6.41151,1.56274 9.09463,0.44166 z"
         style="fill:#e9c6af;fill-opacity:1;stroke:none" />
      <path
         sodipodi:nodetypes="ccccccccccccccc"
         inkscape:connector-curvature="0"
         id="path4377"
         d="m 262.34791,300.45962 c -1.76731,0.63552 -2.71283,1.00127 -4.0217,2.27817 -1.4444,1.46746 -2.2419,3.40049 -2.20888,5.46276 -0.80182,10.59274 -2.1239,19.1879 1.81395,29.29133 1.8502,4.67959 3.98232,12.01274 6.57667,16.34148 3.88419,5.11232 7.64351,10.35072 11.89063,15.16406 1.24828,1.32977 2.59549,-0.45834 3.32812,-1.42969 1.98606,-2.71364 3.94209,-5.59482 5.09126,-8.73857 -1.00003,-2.47257 -2.78577,-4.7286 -4.08187,-7.11908 -4.14483,-7.08729 -8.64886,-14.04077 -11.56407,-21.6736 -0.98985,-3.1094 -0.66585,-6.52905 -0.40625,-9.73437 0.61641,-3.6896 2.82073,-6.95812 3.82031,-10.51563 -0.44699,-2.1642 -2.39115,-3.65589 -3.6744,-5.35943 -1.88593,-1.8591 -3.52638,-2.7123 -5.93095,-3.91274 -0.20696,-0.0549 -0.41292,-0.0948 -0.63282,-0.0547 z"
         style="fill:url(#radialGradient7371);fill-opacity:1;stroke:none" />
      <path
         inkscape:connector-curvature="0"
         id="path4393"
         d="m 260.37209,298.60209 c -4.28901,0.39278 -9.56674,0.40692 -12.24474,4.398 -9.21333,12.12593 -12.52812,27.4999 -13.89153,42.37211 -1.16101,6.8994 -1.06737,14.64538 3.44481,20.40935 6.18961,9.14702 17.53349,14.39853 28.51285,13.27705 8.4221,-0.24976 16.52958,-5.86927 19.61581,-13.71149 0.72713,-3.72694 0.172,-7.56691 0.34306,-11.34313 -0.20101,-13.06349 -0.40953,-26.73456 -6.17681,-38.75068 -2.99307,-5.99774 -7.33631,-11.78551 -13.4801,-14.77439 -1.46404,-1.33738 -6.32674,-0.90506 -2.63418,0.99935 3.26309,2.54494 8.67802,6.02654 6.76438,10.83715 -1.77112,3.53656 -3.15862,7.27301 -3.13795,11.28314 -0.388,7.43313 3.93109,13.88595 7.33351,20.13326 2.29995,3.5755 4.09795,7.58097 6.71114,10.88615 3.01357,2.85808 1.32851,7.47043 -1.08343,10.14108 -2.00901,4.1451 -6.82879,5.40898 -10.34913,7.89414 -8.32903,4.37371 -20.02921,2.56427 -25.45771,-5.50916 -6.94259,-9.50605 -7.17082,-22.24348 -4.2878,-33.25233 2.51708,-10.41905 6.98858,-20.21154 11.38271,-29.9421 4.41176,-2.05941 9.32409,-2.84846 14.12778,-3.08435 1.30607,-1.37339 -3.23505,-1.55402 -4.30137,-2.11763 l -0.59203,-0.0924 -0.59927,-0.0531 z"
         style="fill:#000000;fill-opacity:1;stroke:none" />
      <path
         sodipodi:open="true"
         transform="translate(-36.769553,-1.0606602)"
         sodipodi:end="6.2496772"
         sodipodi:start="0"
         d="m 312.71798,322.00928 c 0,5.12563 -4.19472,9.28077 -9.36916,9.28077 -5.17445,0 -9.36917,-4.15514 -9.36917,-9.28077 0,-5.12563 4.19472,-9.28078 9.36917,-9.28078 5.05226,0 9.19464,3.96806 9.3639,8.96985"
         sodipodi:ry="9.280776"
         sodipodi:rx="9.3691645"
         sodipodi:cy="322.00928"
         sodipodi:cx="303.34882"
         id="path4398"
         style="fill:#ffffff;fill-opacity:0.70149255;stroke:none"
         sodipodi:type="arc" />
      <path
         sodipodi:nodetypes="cccscccsc"
         inkscape:connector-curvature="0"
         id="path4400"
         d="m 247.6996,284.77251 c -3.83186,26.41698 -46.2195,56.97992 -26.21848,83.9449 22.3671,24.78863 35.6037,40.74241 58.64033,53.10601 8.72714,3.01015 26.13938,20.61666 19.67007,17.74815 -1.53577,-0.68097 -8.58776,-5.18485 -12.63457,-8.2483 -22.68391,-14.85965 -49.46083,-29.63666 -61.84222,-54.64817 -22.04213,-20.35076 -4.67981,-43.25368 6.49614,-64.08329 3.60033,-6.40169 -3.3235,-18.06276 2.89086,-23.7908 0.88141,-0.81244 11.98731,-3.58417 12.99787,-4.0285 z"
         style="fill:#f4e3d7;fill-opacity:1;stroke:none" />
      <path
         sodipodi:nodetypes="ccccccccccccccccccc"
         inkscape:connector-curvature="0"
         id="path4425"
         d="m 243.08286,287.12838 c -3.31692,0.59503 -6.78903,1.00414 -10.03208,1.96664 -1.99502,2.77252 -2.33458,6.44502 -3.91603,9.42975 -7.15711,16.01716 -18.80294,29.52656 -26.3351,45.36045 -1.83731,2.9063 -0.44788,6.42535 -0.19866,9.60071 0.69601,3.90119 2.10508,7.65276 3.76756,11.22532 0.44511,2.33208 2.38805,4.02472 3.1723,6.22741 9.98796,16.72508 24.59442,29.98869 39.77765,41.89432 11.79652,9.12409 24.44958,17.20404 38.06456,23.362 3.69199,1.6223 9.63402,3.24153 13.61626,3.88944 1.98884,-0.77676 -1.90706,-2.47651 -3.15988,-3.03836 -12.7267,-8.53143 -25.69619,-16.66587 -37.89746,-25.92918 -10.49458,-8.233 -20.51557,-17.29818 -27.31249,-28.88295 -2.20897,-4.1054 -4.85886,-7.88208 -8.10819,-11.23606 -4.94791,-5.92903 -7.24477,-13.84272 -6.30871,-21.47837 0.7694,-11.02038 6.67105,-20.85073 11.52458,-30.56271 4.80298,-8.33088 7.75941,-17.49821 12.07829,-26.02916 0.71602,-1.68315 2.16879,-2.95401 2.65951,-4.71649 -0.0984,-0.69455 -0.70058,-1.18972 -1.39211,-1.08276 z"
         style="fill:#f4e3d7;fill-opacity:1;stroke:none" />
      <path
         inkscape:connector-curvature="0"
         id="path4433"
         d="m 325.79314,400.44556 c -4.77265,1.03 -9.57733,1.98056 -14.26953,3.33985 -0.90235,0.4873 -1.58034,1.39314 -1.99219,2.3164 -0.28398,1.00387 0.85048,1.73304 1.71875,1.32032 2.48468,-0.78739 5.13093,-0.84115 7.66127,-1.49697 1.82831,-0.48188 3.78163,-0.67965 5.46978,-1.57053 0.97904,-0.65947 2.16621,-1.29576 2.67134,-2.41348 0.34606,-0.7804 -0.45028,-1.65865 -1.25942,-1.49559 z"
         style="fill:#e9c6af;fill-opacity:1;stroke:none" />
      <path
         inkscape:connector-curvature="0"
         id="path4437"
         d="m 288.87126,402.67603 c -1.16064,0.0675 -1.49696,1.66453 -0.64844,2.35547 1.62547,1.37416 3.8134,1.78763 5.80498,2.37362 3.71791,0.8645 7.54839,1.61983 11.38252,1.35294 0.98985,-0.18082 2.12594,-0.0846 2.97266,-0.69531 0.80368,-0.78982 -0.0726,-2.10832 -1.09756,-1.9423 -2.87934,-0.0441 -5.77061,0.0556 -8.57192,-0.62226 -3.10359,-0.52236 -6.03534,-1.61343 -8.96333,-2.71278 -0.28379,-0.0782 -0.58365,-0.1413 -0.87891,-0.10938 z"
         style="fill:#e9c6af;fill-opacity:1;stroke:none" />
      <path
         sodipodi:nodetypes="ccccccccccccccc"
         inkscape:connector-curvature="0"
         id="path3522"
         d="m 293.81178,406.65156 c 3.64438,1.01925 7.44717,1.89839 11.23823,1.15883 3.42691,-0.24284 6.50391,-2.03919 9.94327,-2.21261 3.96354,-0.53281 8.63889,-0.82031 11.33013,-4.19431 1.18338,-2.01525 2.7436,-4.65831 5.43114,-4.48181 2.04848,1.84154 -0.39831,5.0368 -1.54438,6.84622 -2.63351,3.33262 -6.92852,4.88191 -11.06936,5.02488 -9.21219,1.58085 -18.798,4.14883 -28.07058,1.51343 -6.23978,-1.78461 -13.22981,-2.09027 -18.49797,-6.29277 -2.0966,-0.6336 -3.34915,-5.07448 -0.99854,-5.22998 2.12077,1.10811 3.80268,2.84211 5.80395,4.07538 3.0186,1.47182 7.04143,3.68185 10.39611,3.51207 2.21829,0.46409 3.61971,0.35364 5.90714,0.39707 l 0.13086,-0.1164 z"
         style="fill:#28170b;fill-opacity:1;stroke:none" />
      <path
         sodipodi:nodetypes="cscccccccccccssccccccsccccccccccccsccc"
         inkscape:connector-curvature="0"
         d="m 371.57963,303.1909 c -0.36992,0.45817 -0.89604,0.75889 -1.26674,1.21549 -0.21403,0.26363 -0.39182,0.55486 -0.59611,0.82612 -0.96021,1.31819 -1.53384,2.84344 -2.12836,4.34693 -0.5682,1.69951 -1.153,3.39443 -1.5584,5.14146 -0.368,1.96811 -0.37429,3.97979 -0.40632,5.97495 -0.0217,2.05948 -0.0149,4.11911 -0.01,6.17865 0.005,1.72454 0.005,3.4491 0.006,5.17364 0.007,1.85851 -0.0204,3.71708 0.0289,5.57505 0.006,2.43049 0.25375,4.84012 0.65638,7.23381 0.50893,2.06809 0.81655,4.17668 1.24766,6.26009 0.26912,1.40011 0.77115,2.75343 1.37211,4.04314 0.62194,1.30351 1.31946,2.57791 2.17156,3.74578 0.14343,0.17335 0.29388,0.34113 0.4303,0.52006 0.24338,0.31922 0.67554,0.98498 0.93671,1.28933 0.62021,0.72275 1.37758,1.30571 2.12715,1.8836 2.20712,1.57868 4.60872,2.86624 6.97962,4.17872 2.09403,1.11297 4.12126,2.34809 6.26894,3.35573 8.28009,2.95127 3.55885,2.9559 -0.52682,1.12063 -2.17098,-1.02264 -4.22491,-2.26552 -6.34004,-3.39729 -2.42462,-1.34487 -4.88404,-2.65858 -7.13951,-4.27797 -0.84147,-0.65276 -1.66831,-1.30997 -2.36529,-2.12302 -0.36492,-0.42569 -0.56423,-0.80109 -0.89889,-1.23922 -0.1522,-0.19925 -0.31864,-0.38721 -0.47796,-0.58081 -0.89324,-1.2372 -1.63956,-2.57443 -2.29168,-3.95339 -0.63666,-1.37873 -1.17865,-2.81913 -1.46146,-4.31521 -0.42965,-2.09912 -0.74169,-4.22193 -1.25173,-6.30525 -0.41146,-2.45056 -0.6648,-4.91756 -0.67434,-7.40551 -0.0507,-1.86884 -0.0269,-3.73829 -0.032,-5.6077 -2.7e-4,-1.72395 -0.003,-3.4479 -0.006,-5.17185 -0.003,-2.06687 -0.009,-4.13382 0.0131,-6.20061 0.0326,-2.08311 0.0412,-4.18351 0.4346,-6.237 0.42234,-1.80569 1.02291,-3.55914 1.61526,-5.31499 0.63481,-1.6076 1.2563,-3.23403 2.28687,-4.64021 0.23527,-0.31212 0.4455,-0.64362 0.69582,-0.94382 0.35762,-0.42889 0.83409,-0.73028 1.20211,-1.14791 l 0.95831,0.79858 z"
         id="path4439"
         style="fill:#e9c6af;fill-opacity:1;stroke:none" />
      <path
         sodipodi:nodetypes="ccccccccccccc"
         inkscape:connector-curvature="0"
         id="path4445"
         d="m 387.58704,312.3968 c -3.83233,1.40243 -8.02667,7.34039 -9.71899,10.7987 -2.03782,3.56492 -3.06989,7.79972 -2.24601,11.87686 0.52957,3.46208 1.23269,7.24853 4.0066,9.67542 2.14267,2.05555 5.00552,3.01697 7.55298,4.44349 4.14215,2.0916 10.13468,3.83808 14.77357,2.58166 1.00127,-0.60638 3.90878,-0.0604 1.97095,0.77849 -1.65324,0.71594 -5.25461,0.34039 -6.97053,0.72527 -6.03335,-0.11254 -11.28708,-3.45846 -16.42612,-6.23675 -3.33568,-1.89248 -4.9836,-5.64667 -5.67541,-9.2616 -0.60486,-3.14788 -1.1389,-6.42626 -0.27094,-9.58212 1.10836,-4.47747 3.58359,-8.49022 6.3421,-12.13201 0.8842,-1.02529 5.60361,-5.67607 6.6618,-3.66741 z"
         style="fill:#000000;fill-opacity:1;stroke:none" />
      <path
         inkscape:connector-curvature="0"
         id="path4453"
         d="m 386.70959,311.66909 c -0.92944,0.28768 -1.70495,0.93104 -2.4701,1.51242 -2.58468,2.15662 -4.63714,4.87332 -6.35186,7.75226 -1.33941,2.36811 -2.64505,4.81088 -3.19562,7.50094 -0.49865,2.18229 -0.53966,4.45989 -0.16396,6.66086 0.48948,3.03232 1.0638,6.1951 2.86513,8.76102 1.70468,2.34729 4.28662,3.83006 6.85675,5.0506 2.38738,1.15246 4.73275,2.43049 7.28482,3.18984 2.44645,0.74297 5.00585,1.25225 7.57328,1.15214 1.2013,-0.0692 2.41356,-0.20647 3.55664,-0.58985 0.64508,-0.0556 1.46315,-0.0943 1.76685,-0.78389 0.29295,-0.90012 0.32364,-1.8695 0.47533,-2.80204 0.36616,-3.25451 0.37828,-6.55079 0.0909,-9.81187 -0.16848,-1.82609 -0.52749,-3.63069 -1.06746,-5.3854 -0.40038,-1.295 -0.87969,-2.58522 -1.45407,-3.79997 -0.47757,-0.77858 -0.86113,-1.62182 -1.36982,-2.386 -2.40636,-3.82893 -5.53705,-7.12131 -8.65088,-10.37515 -1.59124,-1.692 -3.10955,-3.44606 -4.6307,-5.20255 -0.27696,-0.31034 -0.69436,-0.50484 -1.11523,-0.44336 z"
         style="fill:#000000;fill-opacity:1;stroke:none" />
      <path
         sodipodi:nodetypes="ccsscccscccscscscccccccccccccccscscscccsccscccccc"
         inkscape:connector-curvature="0"
         d="m 373.11342,302.12588 c -1.49591,1.0002 -5.65224,2.15865 -7.26199,2.95009 -0.89829,0.51123 -1.88492,0.90378 -2.72493,1.51578 -0.41158,0.29986 -1.13768,1.01234 -1.44632,1.39937 -0.21866,0.2742 -0.39198,0.58167 -0.58796,0.87251 -1.38837,2.6339 -1.93556,5.5218 -2.31893,8.44264 -0.30463,3.45576 -0.62451,6.9099 -0.93821,10.36494 -0.15101,1.90829 -0.34483,3.82014 -0.37254,5.73597 -0.0121,0.8361 0.0384,1.71365 0.0749,2.54862 0.16471,2.44627 0.28496,4.89994 0.53114,7.3397 0.25744,2.1686 0.44038,4.34579 0.70219,6.51355 0.17134,1.37922 0.33013,2.76366 0.76769,4.08917 0.26996,0.81782 0.49372,1.31721 0.82413,2.11761 0.63759,1.55802 1.13939,3.16979 1.81422,4.7126 0.40843,0.93375 0.59337,1.26697 1.05108,2.16924 0.78397,1.51431 1.77098,2.90517 2.94402,4.14266 0.58776,0.62005 0.92146,0.87941 1.56423,1.43268 1.65225,1.29161 3.54131,2.22668 5.41081,3.15847 1.38971,0.69518 2.85505,1.20491 4.306,1.75066 1.52021,0.44607 3.06116,0.82768 4.60601,1.17933 1.23886,0.27071 2.50334,0.3636 3.76718,0.41451 1.00834,0.0608 2.01071,6.7e-4 3.0011,-0.1911 0.4142,-0.1216 0.20831,-0.0584 0.61769,-0.18946 l 0.37804,1.18753 0,0 c -0.48124,0.15246 -0.22765,0.0766 -0.76154,0.22505 -1.08475,0.20562 -2.18271,0.27628 -3.28641,0.21101 -1.3395,-0.0562 -2.67943,-0.1581 -3.99208,-0.4469 -1.5992,-0.36517 -3.19504,-0.75922 -4.76712,-1.22754 -1.49096,-0.56053 -2.99549,-1.08777 -4.42233,-1.8042 -1.96027,-0.97969 -3.93984,-1.96521 -5.66631,-3.33009 -0.71092,-0.61515 -1.03225,-0.86236 -1.68386,-1.55372 -1.24047,-1.31616 -2.28489,-2.79531 -3.11867,-4.39999 -0.47302,-0.93492 -0.66867,-1.2891 -1.091,-2.25756 -0.67299,-1.54327 -1.17873,-3.15309 -1.81448,-4.7115 -0.34348,-0.83324 -0.59147,-1.38916 -0.87028,-2.24481 -0.45315,-1.39064 -0.63132,-2.8391 -0.80682,-4.28533 -0.26257,-2.17606 -0.44806,-4.36128 -0.70467,-6.53835 -0.24578,-2.46331 -0.36967,-4.9399 -0.53473,-7.40961 -0.0394,-0.91502 -0.0876,-1.73654 -0.0737,-2.65449 0.0293,-1.93574 0.22368,-3.86755 0.37896,-5.79551 0.31733,-3.47111 0.63774,-6.94162 0.94538,-10.41351 0.0789,-0.59897 0.1414,-1.20032 0.23657,-1.79692 0.39709,-2.48938 1.10207,-4.94857 2.28108,-7.18403 0.23644,-0.34124 0.4481,-0.70106 0.70933,-1.02372 1.226,-1.51426 2.82225,-2.32329 4.52449,-3.17672 1.53397,-0.75468 3.11138,-1.44232 4.54351,-2.38486 l 1.12418,-0.55148 z"
         id="path4441"
         style="fill:#000000;fill-opacity:1;stroke:none" />
      <path
         sodipodi:nodetypes="ccccccccccccccccccccccccccccc"
         inkscape:connector-curvature="0"
         id="path4455"
         d="m 372.4908,301.29533 c -3.41289,1.70114 -7.35414,2.37559 -10.36719,4.82422 -2.8179,2.42313 -3.6042,6.27677 -4.19462,9.76657 -0.59252,5.24553 -1.08981,10.50672 -1.42875,15.7762 -0.19175,6.35997 0.62891,12.69366 1.33552,19.00199 0.40896,3.64179 2.03744,6.9731 3.36126,10.33935 1.33521,3.27144 3.35878,6.2974 6.16878,8.47917 2.65441,1.93542 5.68567,3.31151 8.73047,4.51563 3.48053,1.11317 7.08091,2.14953 10.77344,1.98047 1.45192,-0.0587 3.28751,-0.3876 4.40625,-1.46094 4.59708,-3.84763 2.57513,-1.8456 5.73491,-5.87776 0.27407,-0.6832 0.98257,-1.04993 1.20649,-1.75896 0.50777,-0.77157 1.04579,-1.51636 1.5,-2.30078 0.17854,-0.51516 0.55911,-0.94887 0.77735,-1.45312 0.64212,-0.77447 0.79649,-1.84578 1.32328,-2.71538 0.65462,-1.35971 1.15929,-2.78129 1.6025,-4.21041 0.41275,-0.93683 0.44268,-2.03533 0.79687,-3.05859 0.21042,-1.03141 -0.929,-1.60913 -1.80511,-1.29736 -2.81478,0.39219 -5.70282,0.42747 -8.49958,0.0434 -4.60595,-1.09408 -8.76939,-3.48501 -12.85685,-5.81167 -3.18931,-1.82129 -4.59446,-5.50761 -5.24471,-8.94223 -0.61677,-3.16911 -0.98667,-6.50501 0.0664,-9.625 1.27043,-3.95841 3.43351,-7.62953 5.97266,-10.8711 1.40297,-1.61427 3.18947,-2.84095 4.96661,-3.99118 0.94699,-0.79219 -0.0362,-1.87395 -0.56436,-2.593 -0.97198,-1.45081 -2.07785,-2.86132 -3.64866,-3.69795 -3.00419,-1.82576 -6.24582,-3.24862 -9.24775,-5.05327 -0.29088,-0.17378 -0.55832,-0.0689 -0.86522,-0.008 z"
         style="fill:url(#radialGradient7373);fill-opacity:1;stroke:none" />
      <path
         sodipodi:open="true"
         transform="translate(73.651183,0.85290792)"
         sodipodi:end="6.2496772"
         sodipodi:start="0"
         d="m 312.71798,322.00928 c 0,5.12563 -4.19472,9.28077 -9.36916,9.28077 -5.17445,0 -9.36917,-4.15514 -9.36917,-9.28077 0,-5.12563 4.19472,-9.28078 9.36917,-9.28078 5.05226,0 9.19464,3.96806 9.3639,8.96985"
         sodipodi:ry="9.280776"
         sodipodi:rx="9.3691645"
         sodipodi:cy="322.00928"
         sodipodi:cx="303.34882"
         id="path4398-5"
         style="fill:#ffffff;fill-opacity:0.70149255;stroke:none"
         sodipodi:type="arc" />
      <path
         sodipodi:nodetypes="csscscssccsscscscccc"
         inkscape:connector-curvature="0"
         id="path3476"
         d="m 364.80794,298.96103 c -4.19912,-0.024 -7.37635,-0.14333 -10.81951,2.17766 -3.25462,2.19389 -7.89277,10.9715 -9.80767,14.08468 -6.76051,10.99103 -8.06884,25.74387 -6.37634,36.92919 -0.25715,6.26751 2.40837,17.63119 6.24743,22.55802 9.49514,12.18552 33.71304,15.13285 47.03722,5.13642 5.02833,-2.87596 8.35016,-8.91025 10.94892,-13.95783 4.44781,-8.63897 5.92246,-21.13685 3.26281,-30.51961 -1.93389,-6.82241 -6.61545,-18.55781 -12.56027,-23.44075 -9.7581,-11.29177 -11.29626,-7.40911 -23.28825,-12.499 0.45903,-0.43328 -1.78263,1.50898 -1.25345,1.90227 0.50089,0.37227 10.01197,2.2751 14.28564,5.68183 2.4566,1.95827 5.34847,5.21281 6.78911,6.78005 3.2575,3.37723 4.52038,5.62728 6.81332,9.89129 8.16434,15.18257 11.86871,33.28112 -1.29136,47.12337 -10.85878,16.93995 -34.37528,17.33684 -46.95486,4.20884 -3.70734,-3.86897 -5.57641,-8.3717 -6.25987,-14.89234 -3.48779,-17.40179 -3.02864,-25.53685 1.93525,-38.1757 3.42775,-12.97263 6.79924,-12.03026 13.93994,-16.52696 12.23292,-0.0653 20.11449,-5.88309 7.35194,-6.46143 z"
         style="fill:#000000;fill-opacity:1;stroke:none" />
      <path
         sodipodi:nodetypes="cccccccccccc"
         inkscape:connector-curvature="0"
         id="path4465"
         d="m 366.30244,300.21829 c -7.13783,0.16665 -14.01726,3.72515 -17.83296,9.83194 -8.01121,11.33461 -10.05219,21.95037 -9.51075,35.21531 0.23859,7.82384 1.82451,21.84157 7.17505,27.96516 5.67907,7.12919 15.23172,12.58696 24.71202,11.5317 6.07947,0.33351 20.19487,-7.19836 24.73609,-10.87709 0.28975,-2.75238 -11.16552,1.79923 -12.96695,0.98923 -7.899,-1.59003 -16.88233,-4.96545 -20.15623,-13.07462 -5.10624,-10.37802 -5.50055,-22.53133 -4.90468,-34.01708 0.73179,-6.49907 0.35665,-13.61505 3.67029,-19.4083 2.17365,-3.00141 6.10904,-3.80018 8.85937,-6.14063 0.92082,-2.39512 -2.48469,-2.01633 -3.78125,-2.01562 z"
         style="fill:#e5e5e5;fill-opacity:1;stroke:none" />
      <path
         sodipodi:nodetypes="ccccccccccccccccccccccccccccccccccccccccccsccccccc"
         inkscape:connector-curvature="0"
         id="path4504"
         d="m 182.4531,162.16933 c -21.75705,7.58176 -40.19689,14.75109 -62.30367,21.13704 -2.13993,0.76559 -10.63264,2.50037 -12.53916,3.74428 -0.47107,2.49829 5.34019,1.21814 6.84071,1.68451 22.59294,1.81351 40.06949,8.41329 60.87436,16.9777 24.30693,10.2261 47.56242,22.81364 71.19425,34.56289 4.29266,2.1999 8.70051,4.39841 12.83137,6.76849 -7.05668,3.97593 -15.23307,5.75199 -23.30138,5.3696 -8.83783,0.14808 -17.67284,-0.16184 -26.35077,-1.90035 -19.80505,-3.13123 -39.11078,-8.99994 -58.85559,-12.33018 -4.84002,-0.54846 -9.80774,-0.93007 -14.63932,-0.24307 -5.67579,2.58461 -11.27765,6.49679 -14.09794,12.24179 -2.79328,7.51918 -3.66554,15.60024 -5.1709,23.45169 -2.30083,13.24142 -0.62449,26.75732 0.71518,40.0198 2.46548,20.28463 6.36404,40.39733 11.57054,60.14757 0.86898,2.02379 0.90501,5.00606 3.04984,6.14608 2.47236,-0.24549 3.63119,-3.08564 5.20282,-4.7157 9.47078,-13.38346 17.10193,-27.93642 25.47047,-42.02603 4.43256,-7.60323 8.78577,-15.48825 15.53171,-21.37254 10.23167,-9.48421 21.58997,-17.88899 34.05162,-24.18526 5.51255,-2.84916 11.79832,-3.55626 17.67465,-5.43362 46.19058,-12.3168 94.13625,-16.28793 141.73373,-18.40914 1.06631,-0.29679 1.97567,0.19434 2.01084,1.34793 0.66457,5.02732 -2.43111,9.7195 -4.88346,13.87697 -2.65414,4.26436 -5.98338,8.03579 -8.80569,12.17549 -0.59512,1.6008 1.65755,2.09057 2.39496,0.83678 5.129,-4.45534 10.13674,-9.17318 16.27913,-12.24348 13.25396,-7.418 27.12528,-14.42055 42.18129,-17.18693 5.87841,-0.72705 12.75159,-1.18554 17.31306,3.34771 3.62479,3.4798 3.96315,8.72512 3.8449,13.42398 0.33232,3.25223 -0.70239,7.69433 2.45277,9.8553 3.46463,2.34284 7.81796,0.78408 11.67635,0.83116 4.60309,-0.1146 8.97775,-1.48848 13.24917,-3.07401 5.45642,-1.35763 10.9341,1.53174 14.9487,5.08233 2.15717,0.78121 2.19818,-2.43773 3.22617,-3.65707 3.58602,-6.84737 7.36406,-13.6341 12.54008,-19.43439 6.18382,-7.84523 13.28353,-15.13123 18.02016,-23.94219 1.76264,-3.29137 3.02585,-8.18395 -0.46401,-10.84967 -3.92069,-3.0748 -9.2824,-1.91554 -13.89903,-2.29629 -22.22719,-0.53726 -44.59611,-4.29578 -65.20337,-12.68914 -17.98045,-7.19401 -34.53227,-19.07532 -44.99886,-35.52126 -4.31593,-6.22754 -6.77594,-13.58611 -11.3097,-19.65156 -0.55315,-0.58744 -0.81982,-0.18041 -1.29628,0.0891 -0.73546,0.41605 -1.06993,1.64067 -1.31118,2.0101 0.48749,11.00476 2.6153,21.92248 2.23181,32.96885 0.19872,7.21436 -0.31472,15.25541 -5.39169,20.82651 -3.55686,3.48402 -9.04607,2.46671 -13.39692,1.35513 -10.55419,-1.28399 -21.07872,-3.04249 -31.16186,-6.37117 -30.50393,-9.81 -58.41407,-26.03794 -87.84423,-38.51943 -21.03034,-8.88512 -38.73615,-15.25743 -61.88563,-14.22632 z"
         style="fill:#ff9955;fill-opacity:1;stroke:none" />
      <path
         sodipodi:nodetypes="csccsscsscscsccscsscsssccc"
         inkscape:connector-curvature="0"
         id="path4508"
         d="m 179.28217,167.47263 c -7.65501,2.19132 -16.75313,4.64365 -29.27033,10.0322 -18.49129,7.96033 -24.58553,6.3692 7.30664,11.87735 32.29227,12.56536 103.1039,42.58245 104.78354,61.16398 -10.258,1.08891 -29.85228,9.46911 -44.27894,7.24785 -44.93771,-6.91905 -87.79055,-26.11328 -94.03972,16.27553 -0.77177,5.23502 -4.22942,10.10776 -3.56211,17.415 -1.67996,3.99047 0.0345,11.61321 0.52147,19.11662 1.5882,24.47024 9.87079,70.19603 15.60118,65.76805 1.7362,-1.34159 2.43536,-17.40174 3.65726,-27.27319 -7.17164,-24.1286 -17.41385,-67.88916 -5.51058,-87.07023 8.66279,-13.95933 33.1706,-10.90919 58.9964,2.68002 5.91653,2.89293 13.42339,-1.25752 20.69288,-0.87104 38.18252,2.02996 83.91682,-21.18 27.11508,-42.3145 -21.68176,2.237 -77.17481,-43.77598 -26.38682,-38.61609 38.49045,6.74508 76.61962,33.09901 114.58213,44.84372 20.64481,6.38702 44.74974,4.81208 65.24657,-1.08895 9.03279,-9.33219 51.73897,3.9233 58.13638,4.85984 1.32828,0.19446 8.88627,-4.37361 6.09988,-5.79225 -2.69609,-1.37266 -15.60674,0.45126 -22.07605,-2.18521 -1.03246,-0.85547 -13.90784,-6.40477 -15.24113,-7.13255 -7.37863,-4.02768 -17.44209,-11.4302 -23.93522,-17.6733 -8.24413,-7.92666 -9.79266,-20.71523 -13.31482,-17.25702 -2.85248,2.80069 1.19617,14.96947 2.34807,31.47421 -31.59682,36.90516 -89.10782,-15.2138 -124.78312,-24.40321 -26.57933,-12.5266 -52.82187,-21.44837 -82.68864,-21.07683 z"
         style="fill:#ffccaa;fill-opacity:1;stroke:none" />
      <path
         sodipodi:nodetypes="cccccccccccccccccccccccccccccscccscccc"
         inkscape:connector-curvature="0"
         id="path4530"
         d="m 380.17966,174.63114 c -0.77807,0.44594 -0.45032,1.36469 -0.39162,2.07799 0.70207,6.89632 1.46557,13.79035 1.41914,20.73172 -0.0546,4.42612 0.14228,8.93151 -0.90642,13.25325 -0.78107,3.25466 0.97219,7.29854 -1.48457,9.661 -1.99593,1.72447 -7.90904,1.20054 -10.42532,0.90918 -2.41936,-0.199 -4.74927,-1.00861 -7.18156,-1.21258 -10.05554,-1.29758 -20.07328,-3.12295 -29.6973,-6.36953 -2.11984,-0.66548 -4.20226,-1.48162 -6.332,-2.09642 -0.78614,-0.1463 -1.28194,0.6786 -1.18219,1.37278 -0.0126,1.59941 -0.0712,3.21271 0.0203,4.80372 0.18418,0.89557 1.28021,0.96053 1.96015,1.33375 8.54399,3.51261 17.40013,6.53998 26.62975,7.54892 7.80001,0.88354 15.97074,-0.0118 23.02382,-3.6088 4.49975,-2.27017 8.41652,-5.57728 11.72273,-9.35513 0.63505,-0.7451 0.17728,-1.76609 0.20521,-2.6438 -0.57627,-7.57018 -2.06775,-15.03421 -2.96623,-22.56223 -0.14093,-1.74221 -0.34127,-3.53522 -0.0221,-5.25634 0.12547,-0.50616 0.40421,-1.11252 0.90874,-1.32307 0.55094,-0.007 0.81599,0.65526 1.12032,1.01847 1.97728,3.28308 3.45144,6.87326 5.47886,10.14537 1.89736,3.21922 4.44223,5.99243 7.2464,8.44385 5.45528,4.82746 11.30887,9.2084 17.45839,13.11799 2.83092,1.86523 5.88177,3.35885 8.98224,4.72106 3.72233,1.66673 7.43632,3.34651 11.07846,5.18131 4.22456,1.49666 8.7852,1.44687 13.21129,1.53402 2.08669,0.005 4.18448,0.0883 6.26355,0.0843 0.92841,-0.0485 0.97789,-0.73329 0.12117,-1.08424 -2.07395,-0.7173 -4.05235,-0.96481 -6.13396,-1.66738 -2.92671,-0.9508 -6.15042,-2.21802 -9.02718,-3.32419 -5.99527,-2.3053 -12.02846,-5.18448 -17.55316,-8.46664 -11.64122,-6.83604 -21.49198,-16.6526 -28.83827,-28.03841 -1.87802,-2.68254 -4.72966,-6.10743 -6.25424,-8.99988 -0.13545,-0.20553 -0.74234,0.0388 -0.9331,-0.0429 -0.57737,-0.24737 0.3995,0.10957 -0.22096,0.0382 -2.30475,0.003 -4.61608,-0.0539 -6.91671,-0.0179 -0.12788,0.0308 -0.25576,0.0617 -0.38364,0.0925 z"
         style="fill:#ffccaa;fill-opacity:1;stroke:none" />
      <path
         inkscape:connector-curvature="0"
         id="path4532"
         d="m 182.24604,161.46067 c -24.07186,8.86484 -48.39586,17.28472 -72.96458,24.41728 -1.92489,-0.0462 -3.35153,2.90689 -0.92808,3.09359 29.66281,1.27212 57.48105,12.81962 84.06725,25.10839 21.90298,10.65458 43.85897,21.39724 65.28696,32.89646 -11.08503,6.53365 -24.67628,4.17082 -36.96843,4.17635 -25.20895,-2.15351 -49.36519,-11.19304 -74.57623,-13.78943 -7.28129,-1.07554 -14.79748,1.15513 -19.93301,6.49739 -7.47988,7.5503 -7.93592,19.03555 -9.69328,28.96463 -3.18436,31.55955 3.19957,63.12025 10.3341,93.7184 1.69507,4.37866 1.31642,10.29963 5.03814,13.54551 2.79419,0.78923 5.65471,-3.3072 2.58535,-5.12652 -5.08048,-8.31864 -6.05427,-18.45321 -8.20149,-27.87331 -2.95448,-18.50804 -6.21793,-37.33303 -5.5208,-56.18401 0.79845,-8.7325 3.80345,-17.07933 5.92202,-25.54423 3.20097,-9.67304 12.393,-16.66792 22.6472,-16.58577 19.35113,-1.76294 38.12994,4.67026 57.01125,7.51831 10.32778,2.50992 21.20797,3.2771 31.58499,0.45755 7.89591,-1.86099 16.02172,-3.37709 23.68138,-5.90788 2.09387,-3.02284 -2.0051,-6.25111 -3.42505,-8.72835 -12.24914,-12.79281 -28.67451,-20.45792 -44.12135,-28.57471 -19.25979,-9.12103 -38.56444,-18.48416 -58.91737,-24.90024 -6.18237,-1.84572 -12.86911,-2.37481 -18.89301,-4.37522 12.59344,-6.11626 25.99266,-10.94673 39.35491,-15.00392 9.88474,-1.77355 20.10427,-0.097 29.98575,1.06066 20.63208,3.16419 39.92746,11.83075 59.04342,19.66641 20.21338,7.31616 38.65014,18.8687 58.3805,27.2899 2.85258,-0.96113 1.80168,-6.14771 -1.21534,-6.56284 -34.81901,-13.46149 -67.31672,-32.91104 -102.97794,-44.38333 -11.82714,-3.82404 -24.23254,-4.73058 -36.58726,-4.87107 z"
         style="fill:#ffccaa;fill-opacity:1;stroke:none" />
      <path
         sodipodi:nodetypes="cccscc"
         inkscape:connector-curvature="0"
         id="path4534"
         d="m 381.87112,164.79733 c -3.16172,1.90895 -2.37505,5.18346 -1.72357,8.10963 1.119,3.52534 6.00058,2.54332 8.68415,2.32019 -0.069,-0.58039 -1.66537,-0.74926 -1.83924,-1.31923 -0.95992,-3.14686 -1.86045,-6.54309 -3.55245,-9.39785 -0.58907,-0.74537 -0.5391,0.0765 -1.56889,0.28726 z"
         style="fill:#ffe680;fill-opacity:1;stroke:none" />
      <path
         sodipodi:nodetypes="ccccccccccccccccccccccccccccccccccccc"
         inkscape:connector-curvature="0"
         id="path4536"
         d="m 207.52511,182.16564 c -5.00402,0.12938 -12.9913,0.17315 -13.96536,6.54074 0.72137,7.79597 7.54988,13.24556 13.01518,18.1638 10.24917,8.18121 22.31726,14.38166 35.39954,15.9541 9.45046,2.97588 19.27685,8.06759 24.68244,16.6833 2.50389,6.84737 -4.16201,12.42099 -9.61223,15.22489 -18.27921,9.77276 -39.77942,8.22151 -59.88311,9.92159 -7.38987,-1.28292 -13.74105,-6.06356 -21.01433,-7.97705 -11.63564,-3.69702 -25.52949,-6.98835 -36.72535,-0.35355 -10.24601,7.22743 -10.47367,21.1513 -10.80548,32.48272 0.0367,21.01571 6.10491,41.35319 10.64524,61.62511 -0.49945,7.69711 -2.05884,15.49295 -2.27044,23.11722 2.4617,1.87289 3.66691,-3.11647 5.09339,-4.33658 11.24355,-16.84416 19.93275,-35.50189 32.01721,-51.71547 11.18317,-12.22179 24.76526,-22.15652 39.5,-29.46368 23.06233,-8.13223 47.38763,-12.25937 71.48421,-16.1039 28.37874,-3.70864 56.9499,-6.35164 85.55978,-7.25272 1.45726,-0.17388 3.61355,-0.11609 2.62955,1.98874 -1.10609,9.8857 -9.58822,16.75996 -13.36873,25.47794 1.69892,2.75204 4.62496,-1.49745 6.34186,-2.43068 11.42155,-10.20013 25.85573,-16.37205 39.95357,-22.02824 9.2275,-3.38217 19.8583,-6.84623 29.49758,-3.05195 7.34975,4.46501 4.93286,14.07919 6.43025,21.2353 1.25918,5.9135 8.48522,5.07989 13.03728,4.77297 7.33696,0.36732 13.95056,-4.63814 21.1911,-2.54117 3.36033,0.48163 5.63351,3.7921 8.86094,4.17635 4.02061,-2.92655 5.24379,-8.5389 8.2864,-12.39646 7.71771,-12.9714 19.91165,-23.13877 26.20715,-36.94633 1.98703,-4.27677 -0.0255,-9.95279 -5.01604,-10.71709 -19.39301,-1.30087 -34.17244,-1.59149 -48.95073,-4.88762 -1.35084,-0.19245 -5.37379,-1.34596 -6.56569,-0.79482 -2.48269,3.31631 -6.54897,5.26705 -10.55387,3.36225 -15.99144,-3.36965 -32.21414,-8.65087 -48.72408,-6.34187 -17.43743,7.9255 -37.21147,7.84555 -55.98911,6.3692 -21.29269,-2.51435 -40.33821,-13.32776 -59.79594,-21.70339 -21.19515,-9.32248 -42.063,-20.24899 -64.86872,-25.05645 -3.843,-0.75491 -7.8003,-1.06546 -11.72346,-0.9972 z"
         style="fill:#ffe680;fill-opacity:1;stroke:none" />
      <path
         sodipodi:nodetypes="cccccccccccccccccccccccccccccccscccccscccccc"
         inkscape:connector-curvature="0"
         id="path4538"
         d="m 182.24604,160.77566 c -23.85096,8.61793 -47.88171,16.87015 -72.0807,24.35099 -1.85505,0.17379 -5.01954,2.71155 -2.12132,3.95538 12.61172,1.95535 25.39513,3.24852 37.63134,7.22574 33.1862,10.07779 63.7919,27.28741 94.80613,42.33317 5.24016,2.79446 10.80113,5.26932 15.6793,8.46804 -7.38446,4.3719 -16.60648,2.6075 -24.79293,3.15988 -22.55061,1.08839 -44.1215,-6.33829 -66.06492,-10.30943 -10.52221,-1.62342 -22.05904,-5.64325 -32.3776,-1.13686 -11.78193,5.11427 -15.17196,18.92131 -16.44954,30.53412 -3.79525,35.57494 3.0808,71.13036 12.00803,105.40716 0.47639,2.69832 3.36714,7.60854 6.47444,4.86136 4.6524,-5.81654 2.56725,-13.91983 4.10036,-20.74478 1.39253,-5.78838 0.48164,-11.4616 -1.18784,-17.07782 -5.31041,-23.10616 -11.24937,-47.21871 -6.69112,-70.93927 1.73736,-10.19323 11.42844,-18.35645 21.96451,-17.14733 14.75236,-0.8471 28.24106,5.71909 41.47623,11.29161 18.54865,-0.54315 37.69931,-0.45018 55.39262,-6.60042 4.46128,-1.85128 9.66754,-4.01087 12.6885,-7.56382 5.32075,-2.65322 6.86736,-10.47735 2.25391,-14.58407 -8.20607,-9.47086 -20.57842,-13.66476 -32.39846,-16.36929 -2.89877,-1.21169 -6.62535,-1.08821 -8.81261,-3.12034 -1.18998,-0.55685 -2.51782,-1.35476 -3.8007,-1.67938 -9.17284,-6.16047 -19.62718,-12.17375 -24.68245,-22.51693 -2.44391,-4.228 1.26071,-9.09738 5.76734,-9.1482 21.46579,-2.65165 41.30001,7.75432 60.56252,15.60924 23.68631,9.70624 46.47559,22.09545 71.13612,29.33624 14.82928,3.54449 30.34811,2.89501 45.45371,1.85615 11.02932,-0.57939 20.62222,-7.45931 31.79771,-6.45235 14.52391,0.49685 28.31593,5.34383 42.64737,7.09317 2.55407,-0.17047 9.21426,-1.25685 8.35481,-4.43903 -1.4366,-1.21414 -5.18312,-1.70062 -7.0191,-2.22943 -3.69769,-1.06502 -7.82256,-2.2252 -11.20941,-3.81116 -18.28148,-6.4535 -35.26869,-18.62962 -46.36051,-34.69127 -2.81658,-2.96856 -5.20962,-8.33721 -7.81571,-11.37204 -3.32008,-0.88591 -5.83228,0.0308 -9.15772,0.48262 0.0919,12.38238 2.9648,25.38037 0.51608,37.64049 -0.54412,2.41234 -1.59144,5.6682 -3.39405,7.57126 -1.66703,1.75993 -5.23675,0.84888 -7.72864,0.242 -14.53943,-1.52358 -28.90941,-4.33812 -42.80205,-8.86094 -2.73982,0.75339 -4.47137,-2.11601 -7.25358,-2.54063 -33.53825,-13.56564 -65.31242,-31.67934 -99.791,-42.9671 -11.85201,-3.80432 -24.3429,-4.79427 -36.71907,-5.11669 z"
         style="fill:#ffeeaa;fill-opacity:1;stroke:none" />
      <path
         sodipodi:nodetypes="cccscc"
         inkscape:connector-curvature="0"
         id="path4540"
         d="m 381.87177,163.50194 c -3.65,1.75559 -2.84923,9.15717 -2.21036,12.21135 1.54049,2.99071 5.71871,2.95328 8.26431,1.37001 0.25685,-0.82182 0.85203,-1.58016 0.69101,-2.62125 -0.44617,-2.88463 -2.73329,-6.47934 -3.69621,-8.40519 -1.03531,-1.31028 -1.12026,-2.6995 -3.04875,-2.55492 z"
         style="fill:#ffeeaa;fill-opacity:1;stroke:none" />
    </g>
  </g>
</svg>
