<?xml version="1.0" encoding="UTF-8" standalone="no"?>
<!-- Created with Inkscape (http://www.inkscape.org/) -->

<svg
   xmlns:dc="http://purl.org/dc/elements/1.1/"
   xmlns:cc="http://creativecommons.org/ns#"
   xmlns:rdf="http://www.w3.org/1999/02/22-rdf-syntax-ns#"
   xmlns:svg="http://www.w3.org/2000/svg"
   xmlns="http://www.w3.org/2000/svg"
   xmlns:sodipodi="http://sodipodi.sourceforge.net/DTD/sodipodi-0.dtd"
   xmlns:inkscape="http://www.inkscape.org/namespaces/inkscape"
   width="128.57143"
   height="182.23457"
   id="svg2"
   version="1.1"
   inkscape:version="0.48.3.1 r9886"
   inkscape:export-filename="/home/jnam/workspace/web/jrcresearch/img/astroids/lock.png"
   inkscape:export-xdpi="27.1852"
   inkscape:export-ydpi="27.1852"
   sodipodi:docname="New document 1">
  <defs
     id="defs4" />
  <sodipodi:namedview
     id="base"
     pagecolor="#ffffff"
     bordercolor="#666666"
     borderopacity="1.0"
     inkscape:pageopacity="0.0"
     inkscape:pageshadow="2"
     inkscape:zoom="3.2612346"
     inkscape:cx="-5.9689977"
     inkscape:cy="105.53388"
     inkscape:document-units="px"
     inkscape:current-layer="layer1"
     showgrid="false"
     fit-margin-top="0"
     fit-margin-left="0"
     fit-margin-right="0"
     fit-margin-bottom="0"
     inkscape:window-width="1920"
     inkscape:window-height="1031"
     inkscape:window-x="0"
     inkscape:window-y="29"
     inkscape:window-maximized="1" />
  <metadata
     id="metadata7">
    <rdf:RDF>
      <cc:Work
         rdf:about="">
        <dc:format>image/svg+xml</dc:format>
        <dc:type
           rdf:resource="http://purl.org/dc/dcmitype/StillImage" />
        <dc:title></dc:title>
      </cc:Work>
    </rdf:RDF>
  </metadata>
  <g
     inkscape:groupmode="layer"
     id="layer3"
     inkscape:label="Layer#1"
     style="display:none">
    <path
       style="fill:#808000;fill-opacity:1;stroke:none"
       d=""
       id="path3833"
       inkscape:connector-curvature="0" />
    <rect
       style="fill:#808000;fill-opacity:1;stroke:none"
       id="rect3835"
       width="172.02074"
       height="218.62886"
       x="-15.638249"
       y="-17.996344"
       ry="46.914738" />
  </g>
  <g
     inkscape:label="Layer 1"
     inkscape:groupmode="layer"
     id="layer1"
     transform="translate(-158.32936,-253.27831)"
     style="display:inline">
    <path
       style="fill:#3f3f3f;fill-opacity:1;stroke:none"
       d="M 62.75,0 C 36.759235,0 15.84375,20.915485 15.84375,46.90625 c 0,25.990765 20.915485,46.9375 46.90625,46.9375 l 3.375,0 c 25.990765,0 46.90625,-20.946735 46.90625,-46.9375 C 113.03125,20.915485 92.115765,0 66.125,0 L 62.75,0 z m 2,9.8125 c 20.299984,0 36.625,17.658495 36.625,39.59375 l 0,4.21875 c 0,21.935255 -16.325016,39.59375 -36.625,39.59375 -20.299984,0 -36.65625,-17.658495 -36.65625,-39.59375 l 0,-4.21875 C 28.09375,27.470995 44.450016,9.8125 64.75,9.8125 z"
       transform="translate(158.32936,253.27831)"
       id="rect3766"
       inkscape:connector-curvature="0" />
  </g>
  <g
     inkscape:groupmode="layer"
     id="layer2"
     inkscape:label="Layer"
     transform="translate(-158.32936,-253.27831)"
     style="display:inline">
    <g
       id="g3786"
       transform="translate(1.186511,-11.135018)">
      <rect
         style="fill:#3e3e3b;fill-opacity:1;stroke:none"
         id="rect2987"
         width="128.57143"
         height="131.42857"
         x="157.14285"
         y="315.21933"
         ry="24.285715" />
      <path
         transform="matrix(0.76923077,0,0,0.76923077,-8.813183,-99.27905)"
         d="m 317.14287,602.36218 a 18.571428,18.571428 0 1 1 -37.14286,0 18.571428,18.571428 0 1 1 37.14286,0 z"
         sodipodi:ry="18.571428"
         sodipodi:rx="18.571428"
         sodipodi:cy="602.36218"
         sodipodi:cx="298.57144"
         id="path3757"
         style="fill:#ffffff;fill-opacity:1;stroke:none"
         sodipodi:type="arc" />
      <path
         sodipodi:nodetypes="ccccc"
         inkscape:connector-curvature="0"
         id="rect3763"
         d="m 215.0932,357.31224 11.1944,0 10.4255,51.27707 -30.2056,0 z"
         style="fill:#ffffff;fill-opacity:1;stroke:none" />
    </g>
  </g>
</svg>
