<?xml version="1.0" encoding="UTF-8" standalone="no"?>
<!-- Created with Inkscape (http://www.inkscape.org/) -->

<svg
   xmlns:dc="http://purl.org/dc/elements/1.1/"
   xmlns:cc="http://creativecommons.org/ns#"
   xmlns:rdf="http://www.w3.org/1999/02/22-rdf-syntax-ns#"
   xmlns:svg="http://www.w3.org/2000/svg"
   xmlns="http://www.w3.org/2000/svg"
   version="1.1"
   width="520.6875"
   height="520.6875"
   id="svg2">
  <defs
     id="defs4" />
  <metadata
     id="metadata7">
    <rdf:RDF>
      <cc:Work
         rdf:about="">
        <dc:format>image/svg+xml</dc:format>
        <dc:type
           rdf:resource="http://purl.org/dc/dcmitype/StillImage" />
        <dc:title></dc:title>
      </cc:Work>
    </rdf:RDF>
  </metadata>
  <g
     id="layer2">
    <path
       d="m 249.06718,488.33752 c 0.30092,-2.0625 0.53546,-10.66072 0.5212,-19.10715 -0.0246,-14.62643 -0.11781,-15.65607 -1.95739,-21.63972 -2.37327,-7.7196 -5.80923,-14.77481 -10.65648,-21.88148 -2.02851,-2.97405 -4.5811,-6.72827 -5.67243,-8.3427 -3.01911,-4.46625 -6.30304,-11.81905 -6.30367,-14.11409 -7.1e-4,-3.43813 4.88398,-10.36253 13.92326,-19.73629 18.12034,-18.79083 21.2793,-22.80495 24.07438,-30.59161 2.07495,-5.78046 2.05612,-17.91143 -0.0379,-24.44193 -3.73334,-11.64282 -13.89296,-20.22372 -30.46027,-25.72698 -6.99135,-2.32236 -12.51171,-2.12999 -27.5,0.9583 -18.0648,3.72218 -24.45105,4.34128 -40.24999,3.90188 -11.12527,-0.30941 -15.33122,-0.73656 -22.53206,-2.28833 -19.1381,-4.12421 -36.64082,-11.59692 -40.01745,-17.08527 -0.75325,-1.22434 -2.997379,-7.52963 -4.98695,-14.01178 -5.624203,-18.32399 -8.547871,-25.07443 -13.899319,-32.09208 -6.538475,-8.57426 -15.206632,-12.80953 -33.671379,-16.45187 -6.285714,-1.23991 -12.495986,-2.58934 -13.800603,-2.99874 -2.303361,-0.72281 -2.358507,-0.83016 -1.904845,-3.70797 1.948612,-12.36107 12.061787,-43.20983 18.139072,-55.33058 l 4.100218,-8.17761 17.804508,0.1273 c 9.792479,0.07 24.875936,0.42957 33.518798,0.79903 34.98238,1.4954 38.05529,2.88057 82.5,37.18833 28.04752,21.65044 39.78819,29.14695 49.28571,31.46929 2.45928,0.60135 7.80216,0.93503 14.28571,0.8922 8.86986,-0.0586 11.36965,-0.34356 17.40797,-1.98445 14.12466,-3.83832 25.38294,-10.18681 33.20678,-18.72515 9.85659,-10.75673 17.94179,-34.28628 20.4725,-59.57913 0.47856,-4.78282 -0.51572,-16.2138 -1.81123,-20.82316 -1.08099,-3.84613 -6.62724,-11.86177 -15.74017,-22.74826 -8.14295,-9.727737 -12.10727,-15.253973 -12.10727,-16.877427 0,-0.485898 0.72321,-1.105013 1.60714,-1.375812 3.49978,-1.072184 11.97734,-7.415452 19.00898,-14.223327 5.3009,-5.132213 8.8987,-9.439541 12.67542,-15.175189 5.51568,-8.376573 6.70419,-9.491106 10.12111,-9.491106 8.16804,0 40.0028,17.942303 64.21528,36.192207 45.73325,34.470944 77.88521,92.399044 86.95409,156.664934 1.41663,10.03883 3.41628,30.81122 3.00558,31.22192 -0.18055,0.18056 -3.00628,-0.32944 -6.27938,-1.13332 -3.27309,-0.80389 -8.04037,-1.65985 -10.59394,-1.90214 -2.55357,-0.24229 -6.82213,-0.94345 -9.48567,-1.55812 -7.51082,-1.7333 -20.85761,-0.92705 -30.51433,1.84331 -4.125,1.18339 -8.78571,2.68802 -10.35714,3.34362 -4.80443,2.00442 -12.25435,7.33514 -15.21549,10.88729 -7.53733,9.04172 -11.08034,16.97777 -15.53515,34.79744 -3.48533,13.94167 -4.69018,17.53186 -7.11786,21.20987 -0.95783,1.45114 -6.3391,6.31416 -11.95838,10.8067 -14.72533,11.77274 -22.35434,20.55425 -25.12568,28.92139 -2.46761,7.45016 -4.31363,25.58811 -5.35351,52.60047 -0.76312,19.82323 -0.0276,32.87028 2.1668,38.43761 1.35102,3.42756 1.35618,3.62286 0.13157,4.97604 -1.65301,1.82655 -3.80829,2.91363 -9.44054,4.76163 -10.59883,3.47758 -39.48341,9.57911 -56.12319,11.85536 -6.14161,0.84015 -29.81971,3.16275 -32.70317,3.20788 -0.30818,0.005 -0.31412,-1.67873 -0.0132,-3.74123 l 1e-5,0 z"
       id="path3815"
       style="fill:#0000ff;fill-opacity:0.4;stroke:none" />
    <path
       d="m 668.57141,599.50507 a 247.14285,247.14285 0 1 1 -494.2857,0 247.14285,247.14285 0 1 1 494.2857,0 z"
       transform="translate(-162.85713,-337.38899)"
       id="path3819"
       style="fill:#00505d;fill-opacity:1;stroke:#1737a2;stroke-width:26.39999962;stroke-linecap:round;stroke-linejoin:bevel;stroke-miterlimit:4;stroke-opacity:1;stroke-dasharray:none" />
  </g>
  <g
     transform="translate(-109.66518,-262.01339)"
     id="layer1">
    <path
       d="m 668.57141,599.50507 a 247.14285,247.14285 0 1 1 -494.2857,0 247.14285,247.14285 0 1 1 494.2857,0 z"
       transform="matrix(0.87709744,-0.48031249,0.48031249,0.87709744,-287.58369,198.95525)"
       id="path2985"
       style="fill:#0063d9;fill-opacity:1;stroke:#1737a2;stroke-width:26.39999962;stroke-linecap:round;stroke-linejoin:bevel;stroke-miterlimit:4;stroke-opacity:1;stroke-dasharray:none" />
    <path
       d="m 134.55407,507.31271 c 11.37832,-9.15011 23.6584,-17.10051 36.02747,-24.82867 10.83542,-7.48882 22.91519,-12.15755 35.7168,-14.8995 11.28257,-1.15864 22.52571,-2.99082 33.87909,-2.03582 9.84746,1.84417 19.42082,4.80253 29.38712,5.8989 8.3819,0.8675 17.0608,0.80832 25.26088,3.00704 3.62014,0.97068 7.12395,2.34232 10.73835,3.33415 11.57547,3.42029 19.86461,2.74736 30.88211,-2.18094 9.68132,-5.35318 16.84807,-13.36965 21.11116,-23.49309 3.663,-9.6155 0.67973,-19.41668 -0.55191,-29.20659 -0.61172,-9.21831 -3.65343,-17.76112 -7.37494,-26.11573 -0.81654,-1.19348 -1.40729,-2.57819 -2.44964,-3.58043 -6.45312,-6.20346 -26.12383,-10.07367 -34.7469,-12.29824 -10.14871,-3.7056 -25.67704,-7.69308 -28.74577,-20.09613 -0.47157,-1.90592 -0.2245,-3.92036 -0.33675,-5.88054 2.00577,-6.77515 6.1141,-12.34184 10.72494,-17.57622 2.958,-3.35802 6.97357,-6.63098 9.14513,-10.67786 1.03208,-1.92338 1.41373,-4.13034 2.12058,-6.19551 1.96361,-7.91783 1.9447,-15.79436 0.0134,-23.6554 0,0 8.32142,-1.92457 8.32142,-1.92457 l 0,0 c 2.10702,9.56462 2.30852,19.00592 -0.3453,28.56661 -1.11078,2.79719 -1.87209,5.75989 -3.33235,8.39156 -4.74091,8.54397 -14.21714,13.8937 -18.09879,23.12334 -1.80942,11.15616 15.28285,14.80022 22.66194,17.67343 12.7019,3.27603 30.2202,5.8767 39.73589,15.82239 1.32909,1.38916 2.09408,3.22486 3.14112,4.83729 4.04412,9.11986 7.33537,18.47882 8.04155,28.52356 1.41592,11.33801 4.49627,22.59061 -0.0855,33.66442 -5.33938,12.05897 -13.754,21.68711 -25.55287,27.92771 -2.31636,0.97993 -4.55772,2.16055 -6.94907,2.93978 -9.78997,3.19014 -19.85874,2.45195 -29.60486,-0.35567 -3.40126,-0.94606 -6.69684,-2.24924 -10.10123,-3.18399 -7.965,-2.18695 -16.43771,-2.02105 -24.58151,-2.90509 -9.89545,-1.14437 -19.44899,-3.82056 -29.18636,-5.87392 -10.49745,-0.99821 -20.89865,0.98488 -31.34643,1.87962 -11.84826,2.49324 -22.96534,6.83823 -32.97105,13.78446 -11.98336,7.47813 -23.88607,15.16457 -34.90907,24.02273 0,0 -5.63861,-6.43308 -5.63861,-6.43308 z"
       id="path2989"
       style="fill:#00505d;fill-opacity:0.4;stroke:#1737a2;stroke-width:26.39999962;stroke-linecap:round;stroke-linejoin:bevel;stroke-miterlimit:4;stroke-opacity:1;stroke-dasharray:none" />
    <path
       d="m 161.3471,613.12111 c 9.9701,-6.41985 21.40741,-11.88281 33.56377,-9.42701 2.09046,0.4223 4.06124,1.30378 6.09186,1.95568 11.21332,4.69715 18.59547,13.93029 25.21348,23.70443 2.83976,3.12629 3.72808,8.99279 7.91684,10.91459 4.07551,1.86984 16.13007,2.25676 20.58681,2.55442 19.15043,0.60106 37.46328,-6.53505 54.90806,-13.69837 7.37485,-3.21933 14.57581,-6.81728 21.69993,-10.55344 5.12019,-2.68521 8.50818,-3.9555 12.44169,-8.16329 1.29408,-1.38432 2.1372,-3.12991 3.20581,-4.69486 5.00938,-11.18676 15.58589,-18.10403 27.71768,-19.29987 2.27605,-0.22436 4.57414,0.0138 6.86121,0.0207 17.6011,3.56012 21.78345,10.53186 20.5479,27.88011 -2.92211,12.55381 -9.88739,23.54733 -13.39885,35.87142 -1.29662,7.66773 0.47155,14.93355 3.1401,22.09327 0.77682,2.08416 1.42714,4.24009 2.5121,6.18176 0.997,1.78417 2.45456,3.26866 3.68183,4.903 1.6706,0.8822 3.27188,1.91048 5.01182,2.64657 6.41357,2.71332 13.31854,4.23648 19.74521,6.97096 6.24555,2.65741 5.91693,2.82385 11.56908,6.60857 8.62115,5.80913 12.22669,14.51265 15.45828,23.89598 1.30079,4.00349 2.90661,7.88772 4.63548,11.72119 0,0 -7.7996,3.51112 -7.7996,3.51112 l 0,0 c -1.83097,-4.07412 -3.54183,-8.19779 -4.92292,-12.45036 -2.62993,-7.65437 -5.10833,-14.82453 -12.17104,-19.61624 -7.2521,-5.02006 -14.86576,-7.55049 -23.13301,-10.49035 -2.61136,-0.92862 -5.3392,-1.59826 -7.80832,-2.85721 -2.671,-1.36189 -5.00554,-3.30161 -7.50832,-4.95243 -1.55624,-2.22933 -3.35687,-4.30665 -4.66872,-6.688 -1.15866,-2.10333 -1.8715,-4.4252 -2.6958,-6.68063 -3.22824,-8.83306 -5.08346,-17.79193 -3.24682,-27.17621 3.46407,-11.76082 9.58858,-22.41029 13.08559,-34.17621 0.25446,-2.76545 1.24314,-9.72797 -0.42188,-12.31811 -2.45504,-3.81908 -7.6565,-5.41332 -11.73227,-6.34031 -12.94324,-0.36854 -21.94432,3.54698 -27.54135,15.74052 -1.58793,2.11087 -2.91294,4.44801 -4.76377,6.3326 -4.55356,4.63661 -8.24916,6.14809 -13.89561,9.10835 -7.3428,3.84962 -14.76864,7.54897 -22.37273,10.85903 -18.66597,7.63614 -38.23825,15.07234 -58.72083,14.31664 -8.49654,-0.59052 -18.3659,-0.53373 -26.01113,-4.98108 -4.49503,-2.61483 -6.06499,-8.30702 -8.99166,-12.21206 -5.53081,-8.20971 -11.55125,-16.23028 -20.85918,-20.39086 -3.3567,-1.20235 -5.58571,-2.31787 -9.26781,-2.3152 -8.16654,0.006 -15.63114,4.34032 -22.37986,8.41247 0,0 -5.28305,-6.72124 -5.28305,-6.72124 z"
       id="path2991"
       style="fill:#00505d;fill-opacity:0.4;stroke:#1737a2;stroke-width:26.39999962;stroke-linecap:round;stroke-linejoin:bevel;stroke-miterlimit:4;stroke-opacity:1;stroke-dasharray:none" />
    <path
       d="m 590.09838,442.75112 c -9.82993,1.80731 -19.65323,3.32245 -29.21816,6.28221 -9.21852,2.47876 -15.16709,7.06456 -21.60668,13.90671 -5.61995,8.6813 -7.08933,16.20852 -5.66511,26.279 1.54379,7.96964 5.53097,15.11038 9.32021,22.19028 2.91822,5.8589 7.99197,11.39813 6.62612,18.47208 -0.87062,4.50906 -3.39439,7.08303 -6.0078,10.55857 -6.07834,7.08097 -10.42609,15.50197 -14.72832,23.74163 -3.21868,10.20467 1.32512,20.92053 5.18083,30.36405 4.32776,9.77248 9.53421,19.11793 14.70741,28.45917 3.79545,6.82114 7.59404,13.64049 11.36979,20.47255 0.55949,1.01542 1.11809,2.03132 1.67757,3.04674 0,0 -7.49154,4.12621 -7.49154,4.12621 l 0,0 c -0.55775,-1.01226 -1.1155,-2.02452 -1.67324,-3.03677 -3.77243,-6.83135 -7.56601,-13.65096 -11.36,-20.47035 -5.33273,-9.64128 -10.69946,-19.28736 -15.14037,-29.38224 -4.80936,-11.8804 -9.66919,-24.89592 -4.84286,-37.53773 4.54442,-8.68421 9.15501,-17.54269 15.54985,-25.02123 1.23346,-1.52099 5.26139,-5.34422 4.80083,-7.85976 -0.79387,-4.33604 -4.79622,-7.81083 -6.20311,-11.89951 -4.27374,-7.98248 -8.66388,-16.06445 -10.25563,-25.0867 -1.68713,-13.13674 0.37921,-22.2385 7.93599,-33.2913 7.45975,-7.82398 14.71694,-13.32969 25.29017,-16.19895 9.89831,-3.03634 20.04074,-4.67445 30.20885,-6.53157 0,0 1.52519,8.41688 1.52519,8.41688 z"
       id="path2997"
       style="fill:#008000;fill-opacity:0.4;stroke:#1737a2;stroke-width:26.39999962;stroke-linecap:round;stroke-linejoin:bevel;stroke-miterlimit:4;stroke-opacity:1;stroke-dasharray:none" />
    <path
       d="m 408.21281,751.26372 c -90.91025,14.82981 -179.8325,-24.26811 -233.32685,-102.59071 -10.15336,-14.86581 -11.17621,-17.33688 -6.82988,-16.5 2.81153,0.54135 8.66842,-0.46717 13.01532,-2.24115 9.36257,-3.82091 17.39273,0.87165 29.01788,16.95708 10.43104,14.43319 23.50228,19.33423 48.64355,18.2388 34.34795,-1.49658 89.69842,-24.08315 104.53524,-42.65713 12.66758,-15.85833 15.5369,-13.85904 8.62096,6.00692 -7.87652,22.62527 -7.00409,42.16669 2.68007,60.03055 6.02041,11.10545 9.16745,13.87525 21.67515,19.07658 8.04769,3.34663 17.72543,8.05555 21.50607,10.46427 7.93242,5.0539 17.84742,26.09578 13.39546,28.4282 -1.594,0.83516 -11.91386,2.98908 -22.93297,4.78659 l 0,0 z"
       id="path3769"
       style="fill:#668000;fill-opacity:0.4;stroke:none" />
    <path
       d="m 557.84086,606.91525 c -7.97477,-14.56272 -14.52593,-29.21683 -14.55812,-32.56468 -0.0322,-3.34785 4.54476,-13.11167 10.17097,-21.69738 12.34272,-18.83524 13.0021,-25.33801 4.51544,-44.53189 -9.98454,-22.58154 -10.71859,-26.60879 -6.34542,-34.81266 3.77354,-7.07898 5.31543,-7.902 22.62541,-12.07679 17.82298,-4.2985 18.65705,-4.1758 20.57746,3.02749 12.32708,46.23754 8.73163,99.62489 -9.75757,144.88644 -4.96301,12.14945 -9.85726,22.57528 -10.87612,23.16853 -1.01883,0.59327 -8.37727,-10.83634 -16.35205,-25.39906 z"
       id="path3771"
       style="fill:#445500;fill-opacity:0.4;stroke:none" />
    <path
       d="m 417.21184,748.66299 c -53.92825,8.62792 -107.5366,0.86261 -152.30811,-22.0622 -33.97194,-17.39499 -75.52171,-55.28524 -90.67696,-82.69052 l -5.80448,-10.49629 9.62086,-1.76402 c 12.7237,-2.33294 17.79652,0.11652 30.06845,14.51877 18.62812,21.86184 46.41064,25.48926 90.45903,11.81078 22.99441,-7.14051 58.98512,-26.90156 70.56648,-38.74524 4.61114,-4.71557 4.71012,-3.39272 0.84823,11.33676 -6.11699,23.3305 -4.90642,40.73768 3.95892,56.92666 6.37214,11.63614 10.01057,14.80226 28.00297,24.36786 19.84101,10.5484 26.15075,16.76859 27.55905,27.16791 0.64837,4.78774 -3.79775,8.27011 -12.29445,9.62949 z"
       id="path3773"
       style="fill:#445500;fill-opacity:0.4;stroke:none" />
    <path
       d="m 566.57012,617.95087 c -4.14305,-6.31216 -10.99237,-18.868 -15.22069,-27.90189 l -7.68789,-16.4252 11.02184,-20.18615 c 12.06153,-22.09033 12.15642,-27.32243 0.99514,-54.87839 -7.86896,-19.4276 -5.61194,-27.27486 9.38215,-32.62013 5.9462,-2.11979 14.40424,-4.35201 18.79563,-4.96051 7.07352,-0.98015 8.29725,-0.0718 10.72708,7.96213 4.47742,14.80398 6.41827,59.93201 3.57086,83.02772 -2.77132,22.47835 -9.3794,45.81828 -18.60536,65.71462 l -5.44593,11.74446 -7.53281,-11.47667 z"
       id="path3775"
       style="fill:#445500;fill-opacity:0.4;stroke:none" />
    <path
       d="m 572.7215,624.38329 c -3.1389,-0.91754 -22.6826,-36.66268 -24.8078,-45.37309 -0.90727,-3.71857 2.42338,-14.49546 7.61103,-24.62681 10.59115,-20.68421 10.99863,-28.65502 2.70346,-52.88151 -8.10863,-23.68167 -7.11869,-27.0521 10.06906,-34.28184 18.30979,-7.70169 20.87191,-7.31676 24.77868,3.72275 5.20915,14.71971 5.922,68.49653 1.23121,92.88067 -4.84511,25.18633 -17.84338,61.65374 -21.58565,60.55983 z"
       id="path3777"
       style="fill:#445500;fill-opacity:0.4;stroke:none" />
    <path
       d="m 392.96619,749.79851 c -61.12025,3.80773 -114.26965,-11.52699 -160.0284,-46.17157 -30.02269,-22.73058 -66.96425,-65.95339 -59.74686,-69.90575 7.43722,-4.07274 22.04359,1.58052 33.32958,12.8999 29.19338,29.27974 77.59603,26.06863 137.13125,-9.09751 l 26.09466,-15.41353 -2.60177,17.74747 c -5.18578,35.37376 3.19333,53.52297 33.62484,72.83164 11.32654,7.18664 21.82516,16.06084 24.25921,20.50565 3.77827,6.89948 3.46161,8.27623 -2.64967,11.51984 -3.8174,2.02616 -17.05321,4.31387 -29.41284,5.08386 z"
       id="path3779"
       style="fill:#445500;fill-opacity:0.4;stroke:none" />
    <path
       d="m 323.13448,464.16218 c -2.63487,0.2694 -12.0759,-0.90986 -20.98006,-2.62058 -63.51264,-12.20235 -74.88206,-12.95393 -102.69918,-6.78892 -12.2506,2.71505 -22.77163,7.30328 -37.22721,16.23482 -23.64296,14.60807 -24.10988,14.00548 -13.77211,-17.77407 14.29202,-43.93541 40.22096,-82.16679 75.39968,-111.17436 11.61438,-9.57696 62.65679,-39.16559 65.91855,-38.21215 5.09759,1.49008 1.29377,13.00431 -8.95573,27.1092 -12.62388,17.3724 -14.67572,28.83825 -7.50422,41.9341 4.79649,8.75885 25.16082,20.10611 46.28545,25.79082 8.67152,2.33353 16.85299,6.22701 18.18105,8.65218 4.33878,7.92303 7.30584,37.76678 4.2079,42.32445 -4.90558,7.21705 -13.70837,13.9984 -18.85412,14.52451 l 0,0 z"
       id="path3781"
       style="fill:#445500;fill-opacity:0.4;stroke:none" />
    <path
       d="m 286.47035,457.24852 c -20.40788,-3.39196 -43.18845,-6.56847 -50.62351,-7.0589 -21.53405,-1.42043 -45.28646,4.62991 -68.86419,17.54145 -11.59272,6.34835 -21.65604,10.4863 -22.36294,9.19543 -2.14296,-3.91325 15.54414,-50.70527 25.85437,-68.39887 21.18965,-36.36405 44.09612,-59.5845 82.94258,-84.0795 24.22935,-15.27805 34.69918,-19.72482 36.91495,-15.6786 0.54606,0.99716 -4.03594,10.19086 -10.18222,20.43044 -6.14628,10.23958 -11.52924,21.82438 -11.96216,25.744 -1.87002,16.93125 14.89299,32.64989 46.73481,43.82315 10.15873,3.5647 19.80907,8.92576 21.44519,11.91347 5.47992,10.00686 6.19997,36.20886 1.15744,42.11763 -8.72841,10.22782 -13.69113,10.6604 -51.05432,4.4503 z"
       id="path3783"
       style="fill:#445500;fill-opacity:0.4;stroke:none" />
    <path
       d="m 278.68305,454.93394 c -55.49249,-7.81019 -68.10829,-6.85288 -102.90762,7.80876 -15.14388,6.38043 -28.07122,11.44383 -28.7274,11.25203 -2.45685,-0.71817 13.59616,-43.45556 22.58557,-60.1288 20.71835,-38.42769 56.13877,-72.97875 97.88586,-95.48334 l 20.4197,-11.00764 -4.21421,10.14996 c -2.31781,5.58249 -7.23118,16.68642 -10.91858,24.67542 -5.8247,12.61959 -6.05887,15.94167 -1.78474,25.319 5.64288,12.38035 16.2944,20.44242 42.9604,32.51648 9.72567,4.40367 19.07516,10.54884 20.77665,13.65592 4.43218,8.09361 5.82297,21.32997 3.28005,31.21689 -3.90069,15.16595 -12.50494,16.61923 -59.35568,10.02532 z"
       id="path3785"
       style="fill:#445500;fill-opacity:0.4;stroke:none" />
  </g>
</svg>
